<svg width="147" height="51" viewBox="0 0 147 51" fill="none" xmlns="http://www.w3.org/2000/svg">
<path d="M40.9171 33.5867C41.1174 33.5867 41.2176 33.6869 41.2176 33.8872C41.2176 34.0875 41.1174 34.1877 40.9171 34.1877H37.0105C36.8102 34.1877 36.71 34.0875 36.71 33.8872C36.71 33.6869 36.8102 33.5867 37.0105 33.5867H37.3486L34.2309 26.1117H22.8492L19.9193 33.5867H20.4452C20.6706 33.5867 20.7833 33.6869 20.7833 33.8872C20.7833 34.0875 20.6706 34.1877 20.4452 34.1877H18.4919C18.2916 34.1877 18.1914 34.0875 18.1914 33.8872C18.1914 33.6869 18.2916 33.5867 18.4919 33.5867H19.2807L22.3233 25.6985C22.3484 25.6985 22.361 25.6859 22.361 25.6609L28.033 11.0864C28.033 11.0614 28.0455 11.0488 28.0706 11.0488L29.1975 8.08135L29.2351 8.04379V8.00624H29.2727V7.96868H29.3103V7.93112H29.3479H29.3855V7.89355H29.4231H29.4608H29.4984H29.536H29.5736L29.6112 7.93112H29.6488C29.6488 7.93112 29.6613 7.93112 29.6864 7.93112V7.96868C29.7365 7.99372 29.7616 8.03128 29.7616 8.08137L37.1239 25.6609C37.1239 25.6859 37.1239 25.6985 37.1239 25.6985L40.4295 33.5867L40.9171 33.5867ZM23.0746 25.5106H33.9679L28.3334 11.9879L23.0746 25.5106ZM57.7829 33.5867C57.9832 33.5867 58.0834 33.6869 58.0834 33.8872C58.0834 34.0875 57.9832 34.1877 57.7829 34.1877H53.5758C53.3755 34.1877 53.2753 34.0875 53.2753 33.8872C53.2753 33.6869 53.3755 33.5867 53.5758 33.5867H54.252V22.6934C54.252 22.4179 54.252 22.1675 54.252 21.9421C54.1768 20.2142 53.8137 18.8995 53.1626 17.998C52.5366 17.1215 51.6852 16.6833 50.6083 16.6833C50.5332 16.6833 50.4706 16.6833 50.4205 16.6833C50.0199 16.7334 49.6317 16.8461 49.2561 17.0214C47.5282 17.7226 46.4138 19.175 45.913 21.3787V33.5867H46.6267C46.827 33.5867 46.9272 33.6869 46.9272 33.8872C46.9272 34.0875 46.827 34.1877 46.6267 34.1877H42.4196C42.2192 34.1877 42.1191 34.0875 42.1191 33.8872C42.1191 33.6869 42.2192 33.5867 42.4196 33.5867H43.0957V20.8528C43.0957 20.0264 43.0331 19.463 42.9079 19.1625C42.7827 18.862 42.4947 18.6366 42.044 18.4863C41.8687 18.4112 41.8186 18.2735 41.8937 18.0731C41.9188 17.998 41.9689 17.9479 42.044 17.9229C42.9204 17.4721 43.559 17.1341 43.9597 16.9087C44.5356 16.5581 45.0114 16.1699 45.3871 15.7442C45.5373 15.594 45.6876 15.594 45.8378 15.7442C45.8879 15.7943 45.913 15.8694 45.913 15.9696V19.5005C46.6142 18.0231 47.6409 17.0089 48.9932 16.4579C49.8696 16.0823 50.7711 15.9571 51.6977 16.0823C52.6493 16.1825 53.5258 16.5205 54.3271 17.0965C54.3522 17.0965 54.3772 17.109 54.4023 17.1341V17.1716L54.4774 17.2092L54.5151 17.2467L54.5527 17.2843H54.5903L54.6279 17.3219L54.6655 17.3594L54.7406 17.397L54.7783 17.4345L54.8159 17.4721L54.8535 17.5097L54.8911 17.5472L54.9287 17.5848L54.9663 17.6223L55.0039 17.6599L55.0415 17.6975L55.0791 17.735L55.1167 17.7726L55.1544 17.8102H55.192V17.8477L55.2296 17.8853L55.2672 17.9228L55.3048 17.9604L55.3424 17.998L55.38 18.0355L55.4176 18.0731C55.4427 18.0981 55.4677 18.1357 55.4928 18.1858H55.5304L55.568 18.2609L55.6056 18.2985L55.6432 18.3736C56.3694 19.3252 56.8202 20.4771 56.9955 21.8294L57.0331 21.8669V21.9045V21.9796V22.1299V22.1674L57.0707 22.2426V22.2801V22.3552V22.3928V22.5055V22.5431V22.6182V22.6557V22.7309V22.7684V22.8811V22.9187V23.0314V33.5866L57.7829 33.5867ZM75.6629 33.5867C75.8633 33.5867 75.9634 33.6869 75.9634 33.8872C75.9634 34.0875 75.8633 34.1877 75.6629 34.1877H71.4559C71.2555 34.1877 71.1554 34.0875 71.1554 33.8872C71.1554 33.6869 71.2555 33.5867 71.4559 33.5867H72.132V22.6934C72.132 22.4179 72.132 22.1675 72.132 21.9421C72.0568 20.2142 71.6937 18.8995 71.0427 17.998C70.4166 17.1215 69.5652 16.6833 68.4884 16.6833C68.4132 16.6833 68.3506 16.6833 68.3006 16.6833C67.8999 16.7334 67.5117 16.8461 67.1361 17.0214C65.4082 17.7226 64.2938 19.175 63.793 21.3787V33.5867H64.5067C64.707 33.5867 64.8072 33.6869 64.8072 33.8872C64.8072 34.0875 64.707 34.1877 64.5067 34.1877H60.2996C60.0993 34.1877 59.9991 34.0875 59.9991 33.8872C59.9991 33.6869 60.0993 33.5867 60.2996 33.5867H60.9758V20.8528C60.9758 20.0264 60.9132 19.463 60.7879 19.1625C60.6627 18.862 60.3748 18.6366 59.924 18.4863C59.7487 18.4112 59.6986 18.2735 59.7737 18.0731C59.7988 17.998 59.8489 17.9479 59.924 17.9229C60.8005 17.4721 61.439 17.1341 61.8397 16.9087C62.4157 16.5581 62.8915 16.1699 63.2671 15.7442C63.4174 15.594 63.5676 15.594 63.7179 15.7442C63.768 15.7943 63.793 15.8694 63.793 15.9696V19.5005C64.4942 18.0231 65.5209 17.0089 66.8732 16.4579C67.7497 16.0823 68.6512 15.9571 69.5777 16.0823C70.5294 16.1825 71.4058 16.5205 72.2072 17.0965C72.2322 17.0965 72.2573 17.109 72.2823 17.1341V17.1716L72.3575 17.2092L72.3951 17.2467L72.4327 17.2843H72.4703L72.5079 17.3219L72.5455 17.3594L72.6207 17.397L72.6583 17.4345L72.6959 17.4721L72.7335 17.5097L72.7711 17.5472L72.8087 17.5848L72.8463 17.6223L72.884 17.6599L72.9216 17.6975L72.9592 17.735L72.9968 17.7726L73.0344 17.8102H73.072V17.8477L73.1096 17.8853L73.1472 17.9228L73.1848 17.9604L73.2224 17.998L73.26 18.0355L73.2977 18.0731C73.3227 18.0981 73.3478 18.1357 73.3728 18.1858H73.4104L73.4481 18.2609L73.4857 18.2985L73.5233 18.3736C74.2495 19.3252 74.7002 20.4771 74.8755 21.8294L74.9131 21.8669V21.9045V21.9796V22.1299V22.1674L74.9508 22.2426V22.2801V22.3552V22.3928V22.5055V22.5431V22.6182V22.6557V22.7309V22.7684V22.8811V22.9187V23.0314V33.5866L75.6629 33.5867ZM99.2901 33.5867C99.4905 33.5867 99.5906 33.6869 99.5906 33.8872C99.5906 34.0875 99.4905 34.1877 99.2901 34.1877H95.3836C95.1832 34.1877 95.0831 34.0875 95.0831 33.8872C95.0831 33.6869 95.1832 33.5867 95.3836 33.5867H95.7216L92.6039 26.1117H81.2223L78.2923 33.5867H78.8182C79.0436 33.5867 79.1563 33.6869 79.1563 33.8872C79.1563 34.0875 79.0436 34.1877 78.8182 34.1877H76.865C76.6646 34.1877 76.5644 34.0875 76.5644 33.8872C76.5644 33.6869 76.6646 33.5867 76.865 33.5867H77.6538L80.6964 25.6985C80.7215 25.6985 80.734 25.6859 80.734 25.6609L86.406 11.0864C86.406 11.0614 86.4186 11.0488 86.4436 11.0488L87.5705 8.08135L87.6081 8.04379V8.00624H87.6457V7.96868H87.6833V7.93112H87.7209H87.7586V7.89355H87.7962H87.8338H87.8714H87.909H87.9466L87.9842 7.93112H88.0218C88.0218 7.93112 88.0344 7.93112 88.0594 7.93112V7.96868C88.1095 7.99372 88.1346 8.03128 88.1346 8.08137L95.497 25.6609C95.497 25.6859 95.497 25.6985 95.497 25.6985L98.8025 33.5867L99.2901 33.5867ZM81.4476 25.5106H92.3409L86.7065 11.9879L81.4476 25.5106ZM116.494 19.7259C116.544 20.2268 116.456 20.64 116.231 20.9655C116.031 21.291 115.755 21.4789 115.405 21.5289C115.355 21.5289 115.317 21.5415 115.292 21.5665C115.217 21.5665 115.154 21.5665 115.104 21.5665C114.779 21.5164 114.516 21.3662 114.315 21.1157V21.0782C114.115 20.8278 113.99 20.4647 113.94 19.9889C113.915 19.7384 113.915 19.463 113.94 19.1625C114.015 18.3611 113.827 17.71 113.376 17.2092C112.925 16.7083 112.237 16.4078 111.31 16.3077C110.108 16.2075 108.994 16.4078 107.967 16.9087C106.64 17.5598 105.651 18.6115 105 20.064C104.674 20.7902 104.436 21.6041 104.286 22.5056V33.5867H105C105.2 33.5867 105.3 33.6869 105.3 33.8872C105.3 34.0875 105.2 34.1877 105 34.1877H100.793C100.592 34.1877 100.492 34.0875 100.492 33.8872C100.492 33.6869 100.592 33.5867 100.793 33.5867H101.469V20.8528C101.469 20.0264 101.406 19.463 101.281 19.1625C101.156 18.862 100.868 18.6366 100.417 18.4863C100.242 18.4112 100.192 18.2735 100.267 18.0731C100.292 17.998 100.342 17.9479 100.417 17.9229C101.293 17.4721 101.932 17.1341 102.333 16.9087C102.909 16.5581 103.384 16.1699 103.76 15.7442C103.91 15.594 104.061 15.594 104.211 15.7442C104.261 15.7943 104.286 15.8694 104.286 15.9696V20.1391C104.336 20.0139 104.386 19.9012 104.436 19.801C105.162 18.2234 106.252 17.084 107.704 16.3828C108.981 15.7567 110.359 15.5439 111.836 15.7442C112.487 15.8444 113.101 16.0322 113.677 16.3077C114.052 16.4579 114.39 16.6457 114.691 16.8711C115.643 17.5473 116.231 18.3987 116.456 19.4254V19.463C116.481 19.5381 116.494 19.6257 116.494 19.7259ZM125.284 33.5491C125.509 33.5491 125.609 33.6493 125.584 33.8496C125.584 34.05 125.484 34.1502 125.284 34.1502C125.209 34.1502 125.146 34.1502 125.096 34.1502H125.058H125.021C124.244 34.1001 123.518 33.9248 122.842 33.6243L122.767 33.5867C122.742 33.5617 122.704 33.5492 122.654 33.5492V33.5116H122.579L122.542 33.474H122.504V33.4365H122.466H122.429L122.391 33.3989L122.353 33.3613H122.316L122.278 33.3238L122.203 33.2862L122.165 33.2487H122.128L122.09 33.2111L122.053 33.1735H122.015L121.977 33.136L121.902 33.0984L121.865 33.0609L121.827 33.0233C121.752 32.9732 121.677 32.9106 121.602 32.8355L121.564 32.7979H121.526L121.489 32.7604L121.451 32.7228L121.376 32.6853L121.338 32.6477V32.6101L121.301 32.5726H121.263L121.226 32.4974H121.188V32.4599H121.15V32.4223H121.113V32.3848H121.075V32.3472L121.038 32.3096L121 32.2721L120.962 32.2345V32.197H120.925V32.1594H120.887L120.85 32.1218L120.812 32.0467V32.0092H120.774V31.9716L120.737 31.934L120.699 31.8965L120.661 31.8589V31.8214L120.624 31.7838V31.7462H120.586V31.7087L120.549 31.6711L120.511 31.596L120.473 31.5584L120.436 31.5209V31.4833L120.398 31.4458V31.4082V31.3706L120.361 31.3331L120.323 31.2579L120.285 31.2204L120.248 31.1453V31.1077L120.21 31.0326L120.173 30.995V30.9199L120.135 30.8448L120.097 30.8072V30.7321L120.06 30.657L120.022 30.6194V30.5818V30.5443L119.985 30.4692V30.4316V30.394L119.947 30.3565V30.3189V30.2813L119.909 30.2062C119.909 30.1812 119.897 30.1436 119.872 30.0935V30.0184V29.9809L119.834 29.9433V29.9057V29.8682V29.8306V29.793L119.796 29.7555V29.7179V29.6804V29.6428V29.6053L119.759 29.5677V29.5301V29.4926V29.455V29.4174V29.3799L119.721 29.3048V29.2672V29.2296V29.1921V29.1545V29.0794V29.0043V28.9292L119.684 28.854V28.7789V28.7038V28.6287V28.5535V28.516V28.4408V28.2906V28.253V28.1404V28.1028V28.0652V28.0277V27.9901V27.9525V27.915V27.8399V27.8023V27.7272V27.6896V27.6145V27.5769V27.5018V27.4267V27.3891V27.314V27.2389V27.2013V27.1638V27.0886V27.0135V26.9384V26.9008V26.8633V26.7881V26.713V26.6755V26.6003V26.5252V26.4125V26.3374V26.2998V26.2623V26.0369V25.9618V25.8866V25.8491V25.7364V25.6613V25.5862V25.5486V25.3232V25.2856V25.2105V25.1354V25.0978V24.9852V24.9476V24.8725V24.7973V24.4968V24.4593V24.3466V24.2715V24.2339V24.1212V24.0836V23.9709V23.2948V23.2573V23.107V23.0694V22.8816V22.8065V22.4309V22.3557V19.4634V16.233H117.317C117.167 16.233 117.067 16.1578 117.017 16.0076C116.967 15.8072 117.042 15.682 117.242 15.6319C118.319 15.3064 119.245 14.7179 120.022 13.8665C120.823 13.015 121.449 11.8882 121.9 10.4858C121.95 10.3355 122.05 10.2604 122.2 10.2604C122.401 10.2604 122.501 10.3731 122.501 10.5985V15.6319H124.642C124.867 15.6319 124.98 15.7321 124.98 15.9324C124.98 16.1328 124.867 16.233 124.642 16.233H122.501V23.971C122.501 23.996 122.501 24.0085 122.501 24.0085V29.0795C122.501 30.7323 122.764 31.9218 123.29 32.648C123.69 33.1989 124.266 33.4995 125.018 33.5495H125.093H125.13C125.18 33.5495 125.231 33.5495 125.281 33.5495L125.284 33.5491Z" fill="url(#paint0_linear_154_2554)"/>
<path d="M43.5699 46.5481C43.6388 46.5481 43.6776 46.5826 43.6862 46.6515C43.6862 46.7205 43.6474 46.7549 43.5699 46.7549H42.4714C42.4025 46.7549 42.368 46.7205 42.368 46.6515V45.8245C42.2905 45.9795 42.1871 46.1131 42.0579 46.2251C41.6961 46.5783 41.2481 46.7549 40.7139 46.7549C39.7059 46.7377 38.965 46.2983 38.4912 45.4368C38.2672 45.006 38.1423 44.5236 38.1164 43.9894L38.1035 43.9765V43.9507V43.9249V43.8861V43.8602V43.8473V43.8214V43.7956V43.7827V43.7569V43.7181V43.6664V43.6535V43.6276V43.5888V43.563V43.5371V43.5242L38.1164 43.4726V43.4597V43.4209V43.395V43.3692V43.3563L38.1293 43.3046V43.2917V43.2658V43.24V43.2271V43.2013L38.1423 43.1754V43.1366V43.1108L38.1552 43.0979V43.0463V43.0333L38.1681 43.0075V42.9687V42.9428L38.181 42.9299V42.8782L38.1939 42.8394V42.8137L38.2068 42.7749V42.762L38.2197 42.7104L38.2327 42.6974V42.6716L38.2456 42.6328V42.607L38.2585 42.5941V42.5683L38.2714 42.5295L38.2843 42.5037L38.2972 42.4649V42.452V42.4262C38.3058 42.4176 38.3144 42.4003 38.3231 42.3745C38.3231 42.3659 38.3274 42.3487 38.336 42.3229C38.3446 42.3056 38.3532 42.2884 38.3618 42.2712C38.6461 41.4959 39.0941 40.9531 39.7058 40.6429C40.0504 40.4706 40.4165 40.3845 40.8042 40.3845C41.2522 40.3845 41.6399 40.4879 41.9673 40.6946C42.131 40.8066 42.2645 40.9316 42.3679 41.0694V39.5443C42.3679 39.2686 42.342 39.079 42.2903 38.9757C42.2472 38.8723 42.1524 38.7904 42.006 38.7301C41.9371 38.7043 41.9155 38.6612 41.9413 38.6009C41.9499 38.575 41.9671 38.5535 41.9929 38.5363C42.3031 38.3898 42.5228 38.2778 42.652 38.2003C42.8501 38.071 43.0181 37.9375 43.156 37.7997C43.1991 37.748 43.2465 37.7437 43.2981 37.7868C43.324 37.8126 43.3369 37.8385 43.3369 37.8643V46.5485L43.5699 46.5481ZM42.368 44.9457V41.7409V41.7021C42.3508 41.3574 42.1828 41.0818 41.8641 40.875C41.5625 40.6855 41.2093 40.5907 40.8044 40.5907C40.5804 40.5907 40.3736 40.651 40.1841 40.7716C40.0032 40.8922 39.8524 41.0559 39.7318 41.2627C39.6112 41.4608 39.5121 41.659 39.4346 41.8571C39.3656 42.0553 39.3053 42.2664 39.2536 42.4904C39.1589 42.9297 39.1158 43.3863 39.1244 43.8602C39.133 44.3426 39.1933 44.7777 39.3053 45.1654C39.4259 45.5875 39.6026 45.9235 39.8352 46.1734C40.0764 46.4232 40.365 46.5481 40.701 46.5481C40.701 46.5481 40.7053 46.5481 40.7139 46.5481C41.1964 46.5395 41.597 46.3844 41.9157 46.0829C42.2173 45.79 42.368 45.4109 42.368 44.9457ZM49.4369 45.3722C49.4627 45.3032 49.5058 45.286 49.5661 45.3205C49.635 45.355 49.6522 45.4023 49.6177 45.4627C49.4368 45.8504 49.1353 46.1605 48.7131 46.3931C48.3082 46.6171 47.8516 46.7377 47.3433 46.755C46.6196 46.7722 45.9907 46.574 45.4566 46.1605C44.9224 45.747 44.5735 45.1698 44.4098 44.4289C44.2634 43.7655 44.2935 43.1021 44.5002 42.4387C44.6984 41.7926 45.0473 41.2886 45.547 40.9268C46.0553 40.5563 46.6627 40.3711 47.3691 40.3711C48.11 40.3797 48.726 40.5951 49.2171 41.0172C49.7168 41.4307 49.958 41.9907 49.9408 42.6972C49.9322 42.9815 49.8762 43.2313 49.7728 43.4467C49.678 43.6621 49.5315 43.8344 49.3334 43.9636C49.1438 44.0842 48.9155 44.1445 48.6485 44.1445H45.3661C45.4092 44.4289 45.4695 44.7002 45.547 44.9587C45.7021 45.4239 45.9304 45.803 46.2319 46.0959C46.5334 46.3802 46.8996 46.531 47.3303 46.5482C47.8042 46.5396 48.2306 46.4276 48.6097 46.2122C48.9888 45.9968 49.2645 45.7168 49.4369 45.3722ZM45.3403 43.5888C45.3403 43.7094 45.3446 43.8257 45.3532 43.9377H47.899C48.4332 43.886 48.7864 43.5974 48.9587 43.0719C49.0362 42.8393 49.0664 42.5938 49.0491 42.3353C49.0319 42.0768 48.9673 41.8313 48.8553 41.5987C48.7174 41.2972 48.5107 41.0559 48.235 40.875C47.9679 40.6855 47.6448 40.5907 47.2658 40.5907C46.8436 40.6166 46.4861 40.7803 46.1932 41.0818C45.9003 41.3747 45.6806 41.7538 45.5341 42.219C45.3962 42.6498 45.3317 43.1064 45.3403 43.5888ZM56.5056 38.3421C56.4884 38.3507 56.4712 38.3551 56.454 38.3551C56.0577 38.4498 55.7346 38.6867 55.4848 39.0658C55.2349 39.4363 55.0971 39.8972 55.0713 40.4486C55.0454 40.7932 55.0756 41.1507 55.1617 41.5212C55.1703 41.547 55.1746 41.5729 55.1746 41.5987C55.2004 41.7365 55.1961 41.8658 55.1617 41.9864C55.1099 42.1242 55.0238 42.2147 54.9032 42.2577C54.8946 42.2577 54.8817 42.2577 54.8645 42.2577C54.8386 42.2664 54.8085 42.2707 54.7741 42.2707C54.7051 42.2621 54.6448 42.2319 54.5931 42.1802C54.5414 42.1285 54.5069 42.0639 54.4898 41.9864C54.4812 41.9347 54.4812 41.8787 54.4898 41.8184V41.8055C54.5156 41.4264 54.3993 41.1378 54.1409 40.9396C53.891 40.7415 53.5076 40.6252 52.9907 40.5907H52.9778C52.5643 40.608 52.2197 40.7329 51.944 40.9655C51.6597 41.1981 51.5089 41.4824 51.4917 41.8184C51.4831 42.1371 51.5994 42.3956 51.8406 42.5937C52.0043 42.7144 52.3274 42.8651 52.8098 43.046C52.9046 43.0805 53.064 43.1365 53.288 43.214C53.5636 43.3088 53.7704 43.3864 53.9082 43.4467C54.0547 43.4984 54.2356 43.5802 54.451 43.6922C54.675 43.8042 54.8387 43.9205 54.9421 44.0411C55.0455 44.1531 55.1359 44.2996 55.2135 44.4805C55.2996 44.6614 55.3341 44.8638 55.3168 45.0878C55.2996 45.5789 55.0325 45.9881 54.5156 46.3155C54.0418 46.6084 53.443 46.7549 52.7193 46.7549C52.1421 46.7635 51.651 46.6171 51.2461 46.3155C50.8498 46.0226 50.6258 45.6349 50.5741 45.1525C50.5655 45.0835 50.5957 45.0448 50.6646 45.0362C50.7335 45.0276 50.7722 45.0577 50.7809 45.1266C50.8326 45.5488 51.0308 45.8891 51.3753 46.1475C51.7372 46.4232 52.1852 46.5568 52.7193 46.5481C53.1759 46.5395 53.555 46.406 53.8565 46.1475C54.1753 45.8805 54.3347 45.5617 54.3347 45.1912C54.3433 44.8725 54.1882 44.6054 53.8695 44.39C53.6627 44.2436 53.2836 44.0713 52.7323 43.8731C52.6633 43.8472 52.5599 43.8128 52.4221 43.7697C52.1636 43.675 51.9655 43.6017 51.8276 43.55C51.6984 43.4983 51.5347 43.4208 51.3366 43.3174C51.1384 43.2054 50.992 43.0934 50.8972 42.9814C50.811 42.8694 50.7378 42.723 50.6775 42.5421C50.6172 42.3525 50.6 42.1458 50.6258 41.9218C50.6776 41.4651 50.9317 41.0904 51.3883 40.7975C51.8277 40.5132 52.3575 40.3753 52.9778 40.3839C52.9778 40.3839 52.9821 40.3839 52.9907 40.3839C53.4818 40.3839 53.9384 40.4916 54.3605 40.707C54.5673 40.819 54.7396 40.9439 54.8775 41.0818C54.8516 40.8578 54.843 40.6424 54.8516 40.4356C54.886 39.8498 55.0411 39.3544 55.3168 38.9495C55.5925 38.5274 55.9543 38.2646 56.4023 38.1612C56.566 38.1182 56.734 38.1009 56.9063 38.1095C56.9321 38.1095 56.958 38.1095 56.9839 38.1095C57.1734 38.1095 57.3328 38.1871 57.4621 38.3422C57.5913 38.4886 57.6559 38.6695 57.6559 38.8849C57.6559 39.0917 57.5913 39.2683 57.4621 39.4148C57.3328 39.5698 57.1734 39.6474 56.9839 39.6474C56.803 39.6474 56.6436 39.5698 56.5058 39.4148C56.3852 39.2683 56.3248 39.0874 56.3248 38.872C56.3248 38.6738 56.385 38.4972 56.5056 38.3421ZM57.7592 46.5481C57.8281 46.5481 57.8625 46.5826 57.8625 46.6515C57.8625 46.7205 57.8281 46.7549 57.7592 46.7549H56.3118C56.2429 46.7549 56.2084 46.7205 56.2084 46.6515C56.2084 46.5826 56.2429 46.5481 56.3118 46.5481H56.5444V42.1673C56.5444 41.883 56.5229 41.6892 56.4797 41.5858C56.4366 41.4824 56.3375 41.4049 56.1825 41.3532C56.1222 41.3273 56.105 41.2799 56.1308 41.211C56.1394 41.1852 56.1566 41.1679 56.1825 41.1594C56.4926 41.0043 56.7123 40.888 56.8416 40.8105C57.0397 40.6898 57.2034 40.5563 57.3326 40.4098C57.3844 40.3582 57.436 40.3582 57.4877 40.4098C57.5049 40.4271 57.5135 40.4529 57.5135 40.4874V46.5482L57.7592 46.5481ZM63.82 48.3186H63.8329V48.3315V48.3574V48.3703L63.82 48.3962V48.422V48.4477V48.4607V48.4864V48.5122L63.8071 48.5252V48.551V48.5639L63.7942 48.5898V48.6156V48.6285L63.7812 48.6543V48.6672L63.7683 48.693V48.7059L63.7554 48.7317V48.7446L63.7425 48.7704V48.7963L63.7296 48.8092V48.8221L63.7167 48.8479L63.7038 48.8608V48.8867L63.6908 48.8996L63.6779 48.9255L63.665 48.9384V48.9643L63.6521 48.9772L63.6392 48.9901L63.6263 49.016L63.6134 49.0289L63.6004 49.0547L63.5875 49.0676V49.0805L63.5746 49.1064C63.566 49.115 63.5574 49.1236 63.5488 49.1322L63.5359 49.1451L63.523 49.1709L63.51 49.1839L63.4842 49.1968L63.4713 49.2097L63.4584 49.2356L63.4455 49.2485L63.4326 49.2614L63.4196 49.2743L63.4067 49.3001L63.3808 49.313L63.3679 49.326L63.355 49.3389L63.3421 49.3518L63.3163 49.3647L63.3034 49.3776L63.2904 49.4035L63.2646 49.4164L63.2517 49.4293L63.2388 49.4422L63.213 49.4552L63.2 49.4681L63.1871 49.481C62.7994 49.7567 62.3213 49.929 61.7527 49.9979H61.7398H61.7269H61.714H61.701H61.6881V50.0108H61.6752H61.6623H61.6494H61.6365H61.6236H61.6106H61.5977H61.5848H61.5719H61.559H61.5461H61.5331H61.5202L61.5073 50.0237H61.4944H61.4815H61.4686H61.4557H61.4427H61.4298H61.4169H61.404H61.3911H61.3782H61.3653H61.2877C60.7363 50.0151 60.2409 49.9031 59.8015 49.6877C59.8015 49.6877 59.8015 49.6834 59.8015 49.6748C59.6809 49.6145 59.5689 49.5499 59.4655 49.481V49.4681H59.4526C59.4354 49.4508 59.4182 49.4379 59.401 49.4293L59.3881 49.4164V49.4035H59.3752H59.3622V49.3906L59.3493 49.3777H59.3364L59.3235 49.3647V49.3518C59.0823 49.1364 58.9315 48.8823 58.8712 48.5894V48.5765C58.8626 48.5592 58.8583 48.5463 58.8583 48.5377V48.5248V48.5119V48.499V48.4861V48.4732L58.8454 48.4602V48.4473V48.4344V48.4086V48.3957C58.8626 48.0252 58.9832 47.784 59.2072 47.672C59.3106 47.6203 59.414 47.6074 59.5173 47.6332C59.6293 47.6591 59.7112 47.7194 59.7629 47.8141C59.8404 47.9606 59.8146 48.1243 59.6854 48.3052C59.5389 48.512 59.483 48.7273 59.5174 48.9513C59.5605 49.1581 59.6897 49.339 59.9051 49.4941C60.31 49.7009 60.7709 49.8086 61.2878 49.8172C61.6669 49.7827 61.9814 49.6793 62.2312 49.507C62.4897 49.3433 62.6749 49.1366 62.7869 48.8867C62.8731 48.6972 62.9075 48.499 62.8903 48.2923C62.8817 48.0855 62.8257 47.8917 62.7223 47.7107C62.438 47.2283 61.9383 46.9914 61.2232 47C60.6029 47.0517 60.142 47.0344 59.8405 46.9483C59.5131 46.8535 59.3494 46.6769 59.3494 46.4184V46.3796C59.358 46.1643 59.4915 46.0049 59.75 45.9015C59.862 45.8498 59.9912 45.8153 60.1377 45.7981C59.7931 45.6516 59.4872 45.4406 59.2202 45.1649C58.7291 44.6394 58.4836 43.976 58.4836 43.1748C58.4836 42.3735 58.7291 41.7059 59.2202 41.1717C59.7285 40.6376 60.3488 40.3619 61.0811 40.3447C61.1413 40.3447 61.2017 40.349 61.262 40.3576C61.5894 40.3748 61.9038 40.448 62.2054 40.5773C62.2398 40.5773 62.2699 40.573 62.2958 40.5643C62.3216 40.5557 62.3475 40.5471 62.3734 40.5385C62.5457 40.4868 62.6706 40.3963 62.7481 40.2671C62.8343 40.1465 62.8644 40 62.8385 39.8277C62.8299 39.776 62.817 39.72 62.7998 39.6597C62.705 39.384 62.7093 39.1773 62.8127 39.0394C62.8644 38.9705 62.9334 38.9274 63.0195 38.9102C63.0884 38.9016 63.1616 38.9145 63.2392 38.949C63.4373 39.0438 63.545 39.2247 63.5622 39.4917C63.5795 39.8364 63.4675 40.1207 63.2262 40.3447C63.0453 40.517 62.7998 40.6462 62.4896 40.7324C62.6878 40.853 62.8644 40.9994 63.0195 41.1717C63.5192 41.7059 63.769 42.3736 63.769 43.1748C63.769 43.976 63.5192 44.6394 63.0195 45.1649C62.761 45.4492 62.425 45.6646 62.0115 45.811C61.6066 45.9575 61.2318 46.0135 60.8872 45.979C60.8097 45.979 60.7321 45.979 60.6546 45.979C60.3014 45.979 60.0257 46.0178 59.8275 46.0953C59.6552 46.1642 59.5648 46.2633 59.5562 46.3926V46.4184C59.5562 46.5735 59.6725 46.6812 59.9051 46.7415C60.1808 46.819 60.6158 46.8363 61.2103 46.7932C61.9426 46.7329 62.55 46.8276 63.0324 47.0774C63.4976 47.3101 63.7604 47.6719 63.8207 48.163V48.2017V48.2664V48.2793V48.2922L63.82 48.3186ZM59.9173 45.062C60.2447 45.5445 60.6453 45.7857 61.1191 45.7857C61.6016 45.7857 62.0065 45.5445 62.3339 45.062C62.6698 44.5537 62.8378 43.9248 62.8378 43.1753C62.8378 42.4172 62.6698 41.7882 62.3339 41.2885C62.0065 40.7975 61.6016 40.552 61.1191 40.552C60.6453 40.552 60.2447 40.7975 59.9173 41.2885C59.5727 41.7882 59.4004 42.4172 59.4004 43.1753C59.4004 43.9248 59.5727 44.5537 59.9173 45.062ZM69.8291 46.5481C69.898 46.5481 69.9325 46.5826 69.9325 46.6515C69.9325 46.7205 69.898 46.7549 69.8291 46.7549H68.3818C68.3128 46.7549 68.2784 46.7205 68.2784 46.6515C68.2784 46.5826 68.3128 46.5481 68.3818 46.5481H68.6144V42.8005C68.6144 42.7057 68.6144 42.6196 68.6144 42.5421C68.5885 41.9476 68.4636 41.4953 68.2396 41.1852C68.0242 40.8836 67.7313 40.7329 67.3609 40.7329C67.335 40.7329 67.3135 40.7329 67.2962 40.7329C67.1583 40.7501 67.0248 40.7889 66.8955 40.8492C66.3011 41.0904 65.9177 41.5901 65.7454 42.3482V46.5481H65.991C66.0599 46.5481 66.0943 46.5826 66.0943 46.6515C66.0943 46.7205 66.0599 46.7549 65.991 46.7549H64.5436C64.4747 46.7549 64.4402 46.7205 64.4402 46.6515C64.4402 46.5826 64.4747 46.5481 64.5436 46.5481H64.7762V42.1673C64.7762 41.883 64.7546 41.6892 64.7115 41.5858C64.6684 41.4824 64.5693 41.4049 64.4143 41.3532C64.354 41.3273 64.3368 41.2799 64.3626 41.211C64.3712 41.1852 64.3884 41.1679 64.4143 41.1594C64.7158 41.0043 64.9355 40.888 65.0733 40.8104C65.2715 40.6898 65.4352 40.5563 65.5644 40.4098C65.6161 40.3582 65.6678 40.3582 65.7195 40.4098C65.7367 40.4271 65.7453 40.4529 65.7453 40.4874V41.7021C65.9865 41.1938 66.3397 40.8449 66.805 40.6554C67.1065 40.5261 67.4166 40.4831 67.7354 40.5262C68.0628 40.5606 68.3643 40.6769 68.64 40.8751C68.6486 40.8751 68.6572 40.8794 68.6658 40.888V40.9009L68.6917 40.9138L68.7046 40.9267L68.7175 40.9396H68.7304L68.7433 40.9525L68.7562 40.9654L68.7821 40.9783L68.795 40.9912L68.8079 41.0042L68.8208 41.0171L68.8337 41.03L68.8466 41.0429L68.8596 41.0558L68.8725 41.0687L68.8854 41.0817L68.8983 41.0946L68.9112 41.1075L68.9241 41.1204H68.9371V41.1333L68.95 41.1462L68.9629 41.1591L68.9758 41.1721L68.9887 41.185L69.0016 41.1979L69.0145 41.2108C69.0231 41.2194 69.0317 41.2323 69.0403 41.2496H69.0532L69.0661 41.2755L69.0791 41.2884L69.092 41.3142C69.3418 41.6416 69.4969 42.0379 69.5572 42.5031L69.5701 42.516V42.5289V42.5548V42.6065V42.6194L69.583 42.6452V42.6581V42.684V42.6969V42.7357V42.7486V42.7744V42.7873V42.8132V42.8261V42.8649V42.8778V42.9166V46.5479L69.8291 46.5481ZM83.9538 46.5481C84.0227 46.5481 84.0572 46.5826 84.0572 46.6515C84.0572 46.7205 84.0227 46.7549 83.9538 46.7549C83.9193 46.7549 83.8935 46.7549 83.8762 46.7549L83.8503 46.742C83.5919 46.7334 83.342 46.6774 83.1008 46.574V46.5611H83.0879C83.0707 46.5525 83.0535 46.5439 83.0362 46.5353L83.0233 46.5224H83.0104H82.9975V46.5095H82.9846H82.9717V46.4965H82.9588H82.9458L82.9329 46.4836L82.9071 46.4707L82.8942 46.4578H82.8813L82.8684 46.4449L82.8425 46.432L82.8296 46.4191L82.8038 46.4062L82.7909 46.3933L82.765 46.3804L82.7521 46.3674C82.7263 46.3416 82.7004 46.3201 82.6745 46.3029L82.6616 46.29L82.6487 46.277H82.6358L82.6229 46.2641V46.2512L82.61 46.2383L82.597 46.2254H82.5841L82.5712 46.2125V46.1996H82.5583V46.1866H82.5454V46.1737H82.5325L82.5196 46.1608V46.1479H82.5066V46.135L82.4937 46.1221L82.4808 46.1092L82.4679 46.0962L82.455 46.0833L82.4421 46.0704V46.0575L82.4291 46.0446H82.4162V46.0317L82.4033 46.0187L82.3904 46.0058L82.3775 45.9929V45.98H82.3646V45.9671L82.3517 45.9542V45.9413L82.3388 45.9284L82.3258 45.9154V45.9025L82.3129 45.8896V45.8767H82.3V45.8638V45.8509L82.2871 45.8379L82.2742 45.825V45.8121L82.2613 45.7992L82.2484 45.7863V45.7605L82.2354 45.7475V45.7346L82.2225 45.7217L82.2096 45.6958V45.6829H82.1967V45.657L82.1838 45.6441V45.6312L82.1709 45.6183V45.5925L82.1579 45.5796V45.5666V45.5537H82.145V45.5279V45.5149H82.1321V45.502V45.4891L82.1192 45.4762V45.4633V45.4504V45.4375L82.1063 45.4245V45.4116V45.3987L82.0934 45.3728V45.3599V45.347L82.0805 45.3341V45.3212V45.3083V45.2953V45.2824H82.0676V45.2566V45.2437V45.2308V45.2179L82.0546 45.2049V45.192V45.1791V45.1662V45.1533V45.1404H82.0417V45.1275V45.1145V45.1016V45.0887V45.0629V45.05V45.0371L82.0288 45.0112V44.9854V44.9595V44.9337V44.9208V44.9079V44.895V44.8691V44.8432V44.8174V44.7915V44.7786V44.7527V44.7398V44.7269V44.714V44.6882V44.6753V44.6623V44.6494V44.6365V44.6107V44.5978V44.5848V44.5719V44.559V44.5461V44.5332V44.5203V44.5074V44.4945V44.4815V44.4686V44.4557V44.4428V44.4299V44.417V44.4041V44.3911V44.3782V44.3653V44.3524L82.0159 44.3266V44.3007V44.2878V44.2748V44.249V44.2102V44.1845V44.1715V44.1586V44.1327V44.094V44.0681V44.0423V44.0294V43.9648V43.9519V43.926V43.9001V43.8614V43.8226V43.8096V43.7838V43.7192V43.7063V43.6805V43.6417V43.6288V43.59V43.5512V43.5383V43.422V43.3832V43.3574V43.3444V43.2928V43.254V43.1635V43.1377V43.0861V43.0602V42.9568V42.931V42.8664V42.8535V41.7034V40.592H81.2147C81.1629 40.592 81.1285 40.5662 81.1113 40.5145C81.0942 40.4456 81.1157 40.4025 81.176 40.3853C81.5551 40.2733 81.8781 40.0708 82.1452 39.7779C82.4123 39.485 82.6234 39.1016 82.7785 38.6278C82.7871 38.2142 82.5932 37.9299 82.1969 37.7749C81.8609 37.6456 81.4991 37.6413 81.1114 37.7619C80.6979 37.8912 80.3791 38.1281 80.1551 38.4727C79.7157 39.1705 79.789 40.088 80.3748 41.2253C80.4437 41.3114 80.4954 41.4062 80.5299 41.5096C80.5385 41.5182 80.5428 41.5268 80.5428 41.5354C80.5514 41.5526 80.5557 41.5742 80.5557 41.5999C80.5815 41.7378 80.5772 41.867 80.5428 41.9876C80.491 42.1255 80.4049 42.2159 80.2843 42.259C80.2757 42.259 80.2628 42.259 80.2456 42.259C80.2197 42.2676 80.1896 42.2719 80.1551 42.2719C80.0862 42.2633 80.0259 42.2332 79.9742 42.1815C79.9225 42.1298 79.8881 42.0652 79.8709 41.9876C79.8622 41.9359 79.8622 41.8799 79.8709 41.8196V41.8067C79.8967 41.4277 79.7804 41.139 79.522 40.9409C79.2721 40.7427 78.8887 40.6264 78.3718 40.592H78.3589C77.9454 40.6092 77.6008 40.7341 77.3251 40.9667C77.0408 41.1993 76.89 41.4836 76.8728 41.8196C76.8642 42.1384 76.9805 42.3969 77.2217 42.595C77.3854 42.7156 77.7085 42.8664 78.1909 43.0473C78.2857 43.0818 78.445 43.1378 78.669 43.2153C78.9447 43.3101 79.1515 43.3876 79.2893 43.4479C79.4358 43.4996 79.6167 43.5815 79.8321 43.6934C80.0561 43.8055 80.2198 43.9218 80.3232 44.0424C80.4266 44.1544 80.517 44.3008 80.5945 44.4817C80.6807 44.6627 80.7152 44.8651 80.6979 45.0891C80.6807 45.5802 80.4136 45.9894 79.8967 46.3168C79.4229 46.6097 78.8241 46.7562 78.1004 46.7562C77.5232 46.7648 77.0321 46.6183 76.6272 46.3168C76.2309 46.0239 76.0069 45.6362 75.9552 45.1537C75.9466 45.0848 75.9768 45.0461 76.0457 45.0374C76.1146 45.0288 76.1534 45.059 76.162 45.1279C76.2137 45.55 76.4119 45.8903 76.7564 46.1488C77.1183 46.4245 77.5663 46.558 78.1004 46.5494C78.557 46.5408 78.9361 46.4073 79.2376 46.1488C79.5564 45.8817 79.7158 45.563 79.7158 45.1925C79.7244 44.8737 79.5693 44.6067 79.2506 44.3913C79.0438 44.2448 78.6647 44.0725 78.1133 43.8744C78.0444 43.8485 77.9411 43.8141 77.8032 43.771C77.6223 43.7021 77.4801 43.6504 77.3767 43.6159C77.282 43.5814 77.1527 43.5298 76.9891 43.4608C76.834 43.3919 76.7134 43.3273 76.6272 43.267C76.5497 43.2067 76.4549 43.1292 76.3429 43.0344C76.2395 42.9396 76.1663 42.8449 76.1232 42.7501C76.0801 42.6467 76.0413 42.5261 76.0069 42.3882C75.9811 42.2418 75.9811 42.0867 76.0069 41.923C76.0586 41.4664 76.3128 41.0917 76.7693 40.7987C77.2087 40.5144 77.7386 40.3766 78.3589 40.3852C78.3589 40.3852 78.3632 40.3852 78.3718 40.3852C78.8628 40.3852 79.3194 40.4929 79.7416 40.7083C79.8277 40.7513 79.9053 40.7987 79.9742 40.8504C79.5607 39.8424 79.5607 39.0154 79.9742 38.3692C80.224 37.9729 80.5816 37.7059 81.0468 37.568C81.4862 37.4302 81.8954 37.4345 82.2745 37.5809C82.7655 37.7705 83.0025 38.1237 82.9852 38.6406V40.3852H83.7348C83.8037 40.3852 83.8381 40.4197 83.8381 40.4886C83.8381 40.5575 83.8037 40.592 83.7348 40.592H82.9852V43.2541C82.9852 43.2541 82.9852 43.2584 82.9852 43.267V44.9987C82.9852 45.5759 83.08 45.9894 83.2695 46.2392C83.4074 46.4202 83.6055 46.5192 83.864 46.5365H83.8898C83.9156 46.5451 83.9372 46.5494 83.9545 46.5494L83.9538 46.5481ZM90.1826 46.5352C90.2515 46.5352 90.286 46.5697 90.286 46.6386C90.286 46.7075 90.2515 46.742 90.1826 46.742H89.0713C89.0023 46.742 88.9679 46.7075 88.9679 46.6386V45.4497C88.899 45.5962 88.8171 45.734 88.7223 45.8632C88.4122 46.2768 87.9987 46.5395 87.4817 46.6515C87.4731 46.6515 87.4645 46.6515 87.4559 46.6515H87.4429H87.43H87.4171L87.4042 46.6645H87.3913H87.3784H87.3655H87.3526H87.3396H87.3267V46.6774H87.3138H87.3009H87.288H87.2751H87.2621H87.2492H87.2363H87.2234L87.2105 46.6903H87.1976H87.1847H87.1717H87.1588H87.1459H87.133H87.1201H87.1072H87.0943H87.0814H87.0684H87.0555H87.0296H87.0038H86.9779H86.9521H86.9392H86.9133H86.8875H86.8746H86.8488L86.8229 46.6774H86.7971H86.7842H86.7583H86.7325L86.7196 46.6645H86.6938H86.6679H86.6421L86.6291 46.6515H86.6034H86.5776L86.5647 46.6386H86.5388H86.513L86.5 46.6257H86.4742L86.4483 46.6128H86.4354L86.4096 46.5999H86.3837L86.3708 46.587H86.3449L86.319 46.574H86.3061L86.2803 46.5611L86.2674 46.5482H86.2416L86.2157 46.5353H86.2028L86.177 46.5224L86.1511 46.5095H86.1382L86.1124 46.4966L86.0995 46.4836L86.0737 46.4707H86.0608L86.0349 46.4579L86.009 46.445L85.9961 46.432L85.9703 46.4191L85.9573 46.4062L85.9315 46.3933H85.9186L85.8928 46.3804L85.8799 46.3675L85.854 46.3546L85.8411 46.3416L85.8152 46.3287L85.8023 46.3158L85.7764 46.3029L85.7635 46.29L85.7376 46.2771L85.7247 46.2642L85.6989 46.2383L85.6859 46.2254C85.2638 45.8894 84.9881 45.4199 84.8589 44.8168C84.8157 44.5928 84.7942 44.3602 84.7942 44.119V42.1676C84.7942 41.8833 84.7726 41.6895 84.7295 41.5861C84.6864 41.4827 84.5873 41.4052 84.4322 41.3535C84.372 41.3276 84.3548 41.2803 84.3806 41.2113C84.3892 41.1855 84.4064 41.1682 84.4322 41.1596C84.7338 41.0046 84.9535 40.8883 85.0913 40.8107C85.2895 40.6901 85.4532 40.5566 85.5824 40.4101C85.6341 40.3584 85.6858 40.3584 85.7375 40.4101C85.7547 40.4273 85.7633 40.4531 85.7633 40.4877V42.5036V44.2482C85.7633 44.4119 85.7719 44.5627 85.7892 44.7005C85.8323 45.3036 85.9831 45.7473 86.2415 46.0316C86.4827 46.3073 86.8187 46.4451 87.2495 46.4451C87.3097 46.4451 87.37 46.4451 87.4304 46.4451C87.9042 46.3417 88.279 46.1048 88.5547 45.7343C88.8217 45.3811 88.9596 44.9547 88.9682 44.455V42.1544C88.9682 41.8701 88.9466 41.6763 88.9035 41.5729C88.8604 41.4695 88.7613 41.392 88.6063 41.3403C88.546 41.3144 88.5244 41.267 88.5416 41.1981C88.5588 41.1723 88.576 41.155 88.5932 41.1464C88.9034 41 89.1274 40.8837 89.2652 40.7975C89.4633 40.6769 89.627 40.5434 89.7563 40.3969C89.808 40.3452 89.8597 40.3452 89.9113 40.3969C89.9286 40.4141 89.9372 40.44 89.9372 40.4745V46.5353L90.1826 46.5352ZM96.3985 46.5481C96.4674 46.5481 96.5062 46.5826 96.5149 46.6515C96.5149 46.7205 96.4761 46.7549 96.3985 46.7549H95.3001C95.2311 46.7549 95.1967 46.7205 95.1967 46.6515V45.8245C95.1191 45.9795 95.0158 46.1131 94.8865 46.2251C94.5247 46.5783 94.0767 46.7549 93.5426 46.7549C92.5346 46.7377 91.7937 46.2983 91.3198 45.4368C91.0958 45.006 90.9709 44.5236 90.9451 43.9894L90.9322 43.9765V43.9507V43.9249V43.8861V43.8602V43.8473V43.8214V43.7956V43.7827V43.7569V43.7181V43.6664V43.6535V43.6276V43.5888V43.563V43.5371V43.5242L90.9451 43.4726V43.4597V43.4209V43.395V43.3692V43.3563L90.958 43.3046V43.2917V43.2658V43.24V43.2271V43.2013L90.9709 43.1754V43.1366V43.1108L90.9838 43.0979V43.0463V43.0333L90.9967 43.0075V42.9687V42.9428L91.0096 42.9299V42.8782L91.0226 42.8394V42.8137L91.0355 42.7749V42.762L91.0484 42.7104L91.0613 42.6974V42.6716L91.0742 42.6328V42.607L91.0871 42.5941V42.5683L91.1 42.5295L91.113 42.5037L91.1259 42.4649V42.452V42.4262C91.1345 42.4176 91.1431 42.4003 91.1517 42.3745C91.1517 42.3659 91.156 42.3487 91.1646 42.3229C91.1732 42.3056 91.1818 42.2884 91.1904 42.2712C91.4747 41.4959 91.9227 40.9531 92.5344 40.6429C92.879 40.4706 93.2452 40.3845 93.6329 40.3845C94.0809 40.3845 94.4685 40.4879 94.7959 40.6946C94.9596 40.8066 95.0931 40.9316 95.1965 41.0694V39.5443C95.1965 39.2686 95.1707 39.079 95.1189 38.9757C95.0758 38.8723 94.981 38.7904 94.8346 38.7301C94.7657 38.7043 94.7442 38.6612 94.7699 38.6009C94.7785 38.575 94.7957 38.5535 94.8216 38.5363C95.1317 38.3898 95.3514 38.2778 95.4806 38.2003C95.6788 38.071 95.8468 37.9375 95.9846 37.7997C96.0278 37.748 96.0752 37.7437 96.1268 37.7868C96.1526 37.8126 96.1655 37.8385 96.1655 37.8643V46.5485L96.3985 46.5481ZM95.1967 44.9457V41.7409V41.7021C95.1795 41.3574 95.0115 41.0818 94.6927 40.875C94.3912 40.6855 94.0379 40.5907 93.633 40.5907C93.409 40.5907 93.2022 40.651 93.0127 40.7716C92.8318 40.8922 92.681 41.0559 92.5604 41.2627C92.4398 41.4608 92.3407 41.659 92.2632 41.8571C92.1943 42.0553 92.134 42.2664 92.0823 42.4904C91.9875 42.9297 91.9444 43.3863 91.9531 43.8602C91.9617 44.3426 92.022 44.7777 92.134 45.1654C92.2546 45.5875 92.4312 45.9235 92.6638 46.1734C92.905 46.4232 93.1936 46.5481 93.5296 46.5481C93.5296 46.5481 93.5339 46.5481 93.5426 46.5481C94.025 46.5395 94.4256 46.3844 94.7444 46.0829C95.0459 45.79 95.1967 45.4109 95.1967 44.9457ZM98.4791 39.0787C98.3499 39.2338 98.1905 39.3114 98.0009 39.3114C97.8114 39.3114 97.652 39.2338 97.5228 39.0787C97.4022 38.9237 97.3419 38.7427 97.3419 38.536C97.3419 38.3292 97.4022 38.1483 97.5228 37.9932C97.652 37.8381 97.8114 37.7606 98.0009 37.7606C98.1905 37.7606 98.3499 37.8381 98.4791 37.9932C98.6083 38.1483 98.6729 38.3292 98.6729 38.536C98.6729 38.7427 98.6083 38.9237 98.4791 39.0787ZM98.7763 46.5481C98.8452 46.5481 98.8797 46.5826 98.8797 46.6515C98.8797 46.7205 98.8452 46.7549 98.7763 46.7549H97.329C97.2601 46.7549 97.2256 46.7205 97.2256 46.6515C97.2256 46.5826 97.2601 46.5481 97.329 46.5481H97.5616V42.1673C97.5616 41.883 97.54 41.6892 97.4969 41.5858C97.4538 41.4824 97.3547 41.4049 97.1997 41.3532C97.1394 41.3273 97.1222 41.2799 97.1481 41.211C97.1567 41.1852 97.1739 41.1679 97.1997 41.1594C97.5012 41.0043 97.7209 40.888 97.8588 40.8105C98.0569 40.6898 98.2206 40.5563 98.3498 40.4098C98.4016 40.3582 98.4533 40.3582 98.5049 40.4098C98.5221 40.4271 98.5307 40.4529 98.5307 40.4874V46.5482L98.7763 46.5481ZM104.811 41.3015C105.389 41.8959 105.677 42.6498 105.677 43.563C105.677 44.4676 105.389 45.2171 104.811 45.8115C104.622 46.0097 104.402 46.182 104.152 46.3285C103.911 46.4663 103.657 46.5697 103.39 46.6386C103.131 46.7075 102.864 46.742 102.589 46.742C102.313 46.742 102.042 46.7075 101.774 46.6386C101.516 46.5697 101.266 46.4663 101.025 46.3285C100.784 46.182 100.564 46.0097 100.366 45.8115C99.7886 45.2171 99.5 44.4676 99.5 43.563C99.5 42.6498 99.7886 41.8959 100.366 41.3015C100.667 40.9827 101.016 40.7458 101.413 40.5907C101.818 40.427 102.227 40.3452 102.64 40.3452C103.485 40.3624 104.208 40.6812 104.811 41.3015ZM104.088 45.6823C104.51 45.1051 104.721 44.3987 104.721 43.563C104.721 42.7187 104.51 42.0079 104.088 41.4307C103.691 40.8793 103.205 40.595 102.627 40.5778C102.024 40.5605 101.512 40.8448 101.09 41.4307C100.667 42.0079 100.456 42.7187 100.456 43.563C100.456 44.3987 100.667 45.1051 101.09 45.6823C101.494 46.2423 101.998 46.5223 102.601 46.5223C103.196 46.5137 103.691 46.2337 104.088 45.6823Z" fill="#126D65"/>
<path d="M125.803 0.000686592C125.703 0.00265827 125.603 0.00812623 125.503 0.0171959L125.481 0.0571192C125.984 0.316646 126.187 0.949056 126.269 1.51851C126.407 2.47356 126.366 3.44437 126.381 4.41052C126.392 5.08052 126.432 5.75952 126.575 6.41162C126.638 6.69874 126.72 6.98063 126.83 7.25505C127.185 8.15157 127.86 8.96243 128.77 9.28574C129.843 9.66812 131.051 9.31739 132.036 8.7426L132.038 8.74812C131.762 9.14368 131.624 9.63579 131.656 10.117C131.688 10.5995 131.889 11.0685 132.216 11.4238L132.264 11.4152C132.179 10.9834 132.398 10.5185 132.752 10.2513C133.116 9.97454 133.598 9.88484 134.054 9.92576C134.51 9.96845 134.945 10.1291 135.365 10.3122C136.351 10.7413 137.322 11.178 138.168 11.8319C138.224 11.8754 138.28 11.9202 138.334 11.9657C136.803 10.4404 135.048 9.2141 133.172 8.13982L133.18 8.12331C133.197 8.13262 133.216 8.1411 133.234 8.14997L133.241 8.13519C135.235 8.70881 137.286 10.0415 138.598 11.6503C138.46 10.8937 138.296 9.97413 138.553 9.24916L138.511 9.23403C138.257 9.36838 137.944 9.57546 137.951 9.86214C137.962 10.3119 138.073 10.6838 138.167 10.9508C137.649 10.1475 137.211 8.88362 137.486 7.96835C137.765 7.03216 138.481 6.23655 139.381 5.85873C138.885 5.62845 138.3 5.5997 137.785 5.77618C137.338 5.93083 136.946 6.23971 136.688 6.63802C136.671 6.12447 136.375 5.62782 135.974 5.29168C135.501 4.89114 134.904 4.6748 134.315 4.48213C133.727 4.29006 133.123 4.10815 132.611 3.76114C132.184 3.47234 131.823 3.04272 131.702 2.55C131.519 3.93911 132.046 5.40753 133.077 6.35802C132.446 6.29354 131.877 5.91276 131.464 5.42738C131.042 4.93031 130.763 4.32948 130.506 3.73036C130.249 3.13137 130.006 2.51914 129.641 1.97968C128.8 0.735666 127.302 -0.0277794 125.803 0.000686592ZM134.442 2.70711C134.442 2.69094 134.409 2.71105 134.394 2.71727C134.322 2.7462 134.287 2.82873 134.316 2.90061C134.345 2.97262 134.427 3.00748 134.499 2.97852C134.571 2.94958 134.606 2.86753 134.577 2.79552C134.555 2.73943 134.442 2.76476 134.442 2.70711ZM24.0244 2.97576C13.5265 2.97576 4.87936 10.6827 3.42379 20.7708C3.3888 21.0134 3.55718 21.2384 3.79976 21.2732C4.04233 21.3083 4.26729 21.1398 4.30215 20.8973C5.69599 11.2369 13.9602 3.8627 24.0244 3.8627H122.263C122.508 3.86281 122.707 3.66409 122.707 3.41898C122.707 3.17403 122.508 2.97565 122.263 2.97576H24.0244ZM135.408 3.20933C135.409 3.21509 135.396 3.20931 135.39 3.20949C135.336 3.21097 135.282 3.22197 135.23 3.24301C134.99 3.33956 134.874 3.61236 134.97 3.8522C135.067 4.09345 135.339 4.20965 135.579 4.11311C135.819 4.01671 135.936 3.744 135.839 3.50288C135.766 3.32137 135.363 3.03063 135.408 3.20933ZM134.187 3.29377C134.184 3.29375 134.181 3.29384 134.178 3.29394C134.152 3.29493 134.125 3.3003 134.099 3.3108C133.98 3.35861 133.921 3.4935 133.969 3.61332C134.017 3.73201 134.153 3.78905 134.271 3.74129C134.391 3.69313 134.449 3.55882 134.401 3.44013C134.365 3.3493 134.279 3.29424 134.187 3.29377ZM141.03 6.64447C140.881 6.64994 140.733 6.65585 140.585 6.68282C139.799 6.82743 139.072 7.49188 139.065 8.29229C139.059 8.81973 139.351 9.33159 139.273 9.85276C139.214 10.2502 138.947 10.6059 138.948 11.0071C138.948 11.4044 139.211 11.7474 139.46 12.0565C139.896 12.598 140.333 13.1402 140.77 13.6819C140.346 13.1236 140.049 12.469 139.909 11.7818C139.717 10.8372 139.827 9.83414 140.218 8.95393L140.277 8.97868C140.021 10.3101 140.203 11.7207 140.785 12.9456C140.782 12.9142 140.781 12.8826 140.782 12.8517C140.785 12.1248 141.141 11.4083 141.716 10.9645C142.07 10.6918 142.538 10.4653 142.624 10.0261C142.686 9.70949 142.516 9.39485 142.327 9.13348C142.139 8.87029 141.919 8.6116 141.863 8.29383C141.812 8.00513 141.913 7.69465 142.123 7.49149C142.317 7.30341 142.601 7.21131 142.869 7.24588L142.873 7.22252C142.312 6.89265 141.672 6.62068 141.03 6.64447ZM130.356 10.0036C130.356 10.0385 130.285 10.0095 130.251 10.0234C130.114 10.0787 130.045 10.2351 130.101 10.3727C130.157 10.5115 130.314 10.577 130.451 10.5216C130.589 10.4663 130.657 10.3103 130.601 10.1714C130.559 10.0683 130.356 9.8988 130.356 10.0036ZM130.97 10.8223C130.97 10.8636 130.887 10.8321 130.847 10.8484C130.661 10.9231 130.571 11.1334 130.646 11.3188C130.72 11.5045 130.931 11.5942 131.117 11.5195C131.302 11.4451 131.392 11.2348 131.317 11.0493C131.259 10.9043 130.97 10.6747 130.97 10.8223ZM143.157 10.8759C142.598 11.6846 142.315 12.6786 142.361 13.6591C142.406 14.6103 142.76 15.5428 143.357 16.2824L143.33 16.305C142.842 15.7053 142.247 15.1923 141.582 14.7982C143.325 17.24 144.404 20.1483 144.677 23.1353C144.638 22.6198 144.731 22.0923 144.841 21.5881C144.967 21.0097 145.275 20.4475 145.778 20.1331C146.122 19.9175 146.606 19.8467 146.911 20.1138L146.94 20.1345C147.047 19.9782 146.996 19.7613 146.902 19.5977C146.724 19.2917 146.4 19.0742 146.049 19.0265C145.699 18.9791 145.33 19.1008 145.076 19.3483L145.043 19.3473C145.07 18.5796 145.256 17.8172 145.587 17.1226L145.584 17.1133C145.016 17.3158 144.567 17.8272 144.445 18.4194L144.364 18.4626C144.262 17.7079 144.816 17.028 144.965 16.2814C145.156 15.3253 144.671 14.3746 144.172 13.5378C143.679 12.7117 143.14 11.8346 143.176 10.8763L143.157 10.8759ZM129.805 11.1645C129.805 11.1592 129.794 11.1647 129.789 11.1649C129.741 11.1664 129.692 11.1764 129.644 11.1955C129.426 11.2833 129.322 11.5305 129.409 11.7488C129.497 11.966 129.743 12.0717 129.961 11.9839C130.178 11.8966 130.284 11.6492 130.197 11.432C130.13 11.2668 129.805 11.3317 129.805 11.1645ZM136.639 12.8443C136.302 12.8483 135.966 12.9443 135.685 13.1317C135.127 13.5054 134.819 14.2233 134.933 14.8852C135.066 14.7623 135.201 14.6433 135.361 14.563C135.54 14.4731 135.757 14.4367 135.943 14.513C136.199 14.6186 136.332 14.9013 136.551 15.0709C136.833 15.2905 137.23 15.299 137.579 15.2221C137.928 15.1466 138.26 14.9972 138.613 14.9325C139.468 14.7774 140.389 15.2002 140.857 15.9249C140.731 15.4809 140.586 15.0405 140.345 14.6478C140.056 14.1738 139.604 13.7702 139.057 13.669C138.799 13.6216 138.527 13.6419 138.28 13.5509C138.025 13.4574 137.828 13.2562 137.598 13.1108C137.314 12.9293 136.976 12.8406 136.639 12.8443ZM138.18 15.7668C137.6 15.7665 137.021 15.8668 136.479 16.0748L136.512 16.1656C137.083 16.1458 137.576 16.5986 137.827 17.1123C138.078 17.6273 138.151 18.2063 138.312 18.7543C138.473 19.3027 138.757 19.8611 139.267 20.1212C139.779 20.3816 140.391 20.2807 140.966 20.2519C141.541 20.2231 142.207 20.3244 142.51 20.8144L142.496 20.8229C142.092 20.6599 141.633 20.7752 141.219 20.9079C140.845 21.0277 140.456 21.1634 140.072 21.1215C140.194 21.5564 140.614 21.8523 141.043 22.0038C141.484 22.1606 141.959 22.206 142.399 22.3633C142.813 22.5106 143.216 22.7941 143.351 23.205L143.348 23.206C143.01 22.8664 142.453 22.771 142.021 22.9769C141.589 23.1828 141.314 23.6759 141.364 24.1512L141.429 24.1825C141.673 23.9087 142.122 23.8964 142.436 24.0826C142.75 24.2702 142.947 24.6077 143.064 24.9535C143.179 25.3 143.231 25.665 143.333 26.017C143.432 26.3565 143.59 26.6947 143.865 26.9187C144.072 26.0554 144.145 25.1597 144.075 24.2756H144.071C144.04 22.8086 143.775 21.3491 143.289 19.9641C142.926 18.931 142.427 17.9217 141.647 17.1531C140.737 16.255 139.456 15.7677 138.18 15.7668ZM1.19223 23.2422L1.13032 23.2518C1.46813 25.2435 2.42197 27.181 4.01149 28.4304C5.55634 29.6448 7.74165 30.1117 9.5597 29.3861C9.07031 29.2619 8.67796 28.8973 8.37744 28.4899C8.07693 28.0775 7.85089 27.6157 7.55774 27.1986C6.98639 26.3914 6.15722 25.7705 5.22074 25.4503C4.43111 25.1818 3.57922 25.1245 2.79432 24.8387C2.05433 24.5682 1.33619 24.0047 1.19223 23.2422ZM143.507 28.9854C143.507 28.947 143.43 28.9889 143.393 28.9983C143.24 29.0366 143.118 29.1537 143.074 29.3055C140.678 37.7046 134.921 43.7206 125.788 43.7206H121.883C121.638 43.7208 121.44 43.9193 121.439 44.164C121.439 44.409 121.638 44.6076 121.883 44.6078H125.788C135.314 44.6078 141.456 38.2065 143.926 29.5499C143.993 29.3146 143.857 29.0697 143.622 29.0024C143.584 28.9917 143.507 29.0238 143.507 28.9854ZM6.84897 30.877C6.21064 30.877 5.69389 31.3939 5.69389 32.0322C5.69389 32.6708 6.21064 33.1869 6.84897 33.1869C7.48729 33.1869 8.00371 32.6708 8.00371 32.0322C8.00371 31.3939 7.48729 30.877 6.84897 30.877ZM9.12129 31.5131C8.83549 31.5131 8.6024 31.7467 8.6024 32.0322C8.6024 32.318 8.83549 32.5511 9.12129 32.5511C9.40684 32.5511 9.64036 32.318 9.64036 32.0322C9.64036 31.7467 9.40684 31.5131 9.12129 31.5131ZM2.59825 31.5348C2.66287 32.1632 2.52358 32.8141 2.18341 33.3455C1.74866 34.0261 1.0435 34.4955 0.59405 35.1635C0.149586 35.8218 -0.019874 36.6638 0.139314 37.4437C0.263564 38.0571 0.576276 38.6205 0.675574 39.2365C0.774867 39.8499 0.573708 40.5927 0 40.8212V40.8237C1.23199 40.7092 2.29763 39.8079 2.84901 38.6976C3.40038 37.5898 3.50232 36.3084 3.40539 35.0743C3.31345 33.8622 2.59825 32.7481 2.59825 31.5348ZM8.6024 34.0414C8.41616 34.0414 8.26238 34.1929 8.26238 34.3792C8.26238 34.5675 8.41616 34.7194 8.6024 34.7194C8.78865 34.7194 8.94037 34.5675 8.94037 34.3792C8.94037 34.1929 8.78865 34.0414 8.6024 34.0414ZM6.40214 35.3556C2.98862 35.3556 10.5979 40.9775 13.3498 42.9991C7.75672 40.3489 6.28887 36.6138 6.16462 36.2683C6.55445 37.5103 6.56192 38.8836 6.20179 40.118C5.9956 40.8136 5.62811 41.5215 4.98978 41.837C5.21096 41.9862 5.51155 41.8816 5.74482 41.755C6.2292 41.4944 6.67389 41.1612 7.05899 40.7714C6.76347 41.3797 6.63644 42.0729 6.71604 42.7456C6.84265 43.8061 7.47832 44.7953 8.39483 45.349C9.58217 46.067 11.0596 46.0215 12.4481 46.0389C13.8364 46.0565 15.3517 46.2082 16.3428 47.1818C16.663 47.4946 16.9188 47.9193 16.8865 48.369C16.8444 48.9128 16.3376 49.3648 15.7912 49.3971C15.4511 49.4169 15.1131 49.2853 14.8525 49.0644C15.784 50.0305 17.3783 50.3209 18.573 49.6878C19.5815 49.1538 20.2097 48.1081 20.5125 46.9957C20.5672 46.8018 20.6095 46.6078 20.6444 46.4116C20.915 44.8297 20.6563 43.1483 19.8418 41.7674C19.0272 40.3864 17.6465 39.3307 16.0769 38.9981C14.5594 38.6724 12.8903 39.0551 11.7132 40.0662C12.1876 39.3136 12.8209 38.6204 13.6455 38.2852C14.4527 37.96 15.3564 37.8882 16.2033 38.0818C15.3491 37.1805 14.0129 36.9241 12.7685 36.9441C11.5242 36.9664 10.2824 37.2176 9.04306 37.1233C7.95527 37.0413 7.46827 35.3556 6.40214 35.3556ZM4.07615 41.9091C3.8773 41.9091 3.71583 42.0704 3.71583 42.2716C3.71583 42.4702 3.8773 42.6319 4.07615 42.6319C4.27474 42.6319 4.43595 42.4702 4.43595 42.2716C4.43595 42.0704 4.27474 41.9091 4.07615 41.9091ZM3.46232 42.9991C3.15944 42.9991 2.91075 43.2476 2.91075 43.5507C2.91075 43.8562 3.15944 44.1044 3.46232 44.1044C3.76783 44.1044 4.01648 43.8562 4.01648 43.5507C4.01648 43.2476 3.76783 42.9991 3.46232 42.9991ZM5.04927 43.3892C4.77371 43.3892 4.55291 43.6126 4.55291 43.8858C4.55291 44.1616 4.77371 44.3826 5.04927 44.3826C5.32246 44.3826 5.54615 44.1616 5.54615 43.8858C5.54615 43.6126 5.32246 43.3892 5.04927 43.3892ZM23.0979 43.4016C22.8543 43.4016 22.6583 43.5977 22.6583 43.8412C22.6583 44.0847 22.8543 44.2832 23.0979 44.2832C23.3411 44.2832 23.5399 44.0847 23.5399 43.8412C23.5399 43.5977 23.3411 43.4016 23.0979 43.4016ZM22.3456 44.852C21.9508 44.852 21.6301 45.1723 21.6301 45.5671C21.6301 45.9596 21.9508 46.28 22.3456 46.28C22.7404 46.28 23.058 45.9596 23.058 45.5671C23.058 45.1723 22.7404 44.852 22.3456 44.852ZM24.5931 45.4333C24.109 45.4333 23.7191 45.8258 23.7191 46.3075C23.7191 46.7919 24.109 47.184 24.5931 47.184C25.0775 47.184 25.4698 46.7919 25.4698 46.3075C25.4698 45.8258 25.0775 45.4333 24.5931 45.4333Z" fill="url(#paint1_linear_154_2554)"/>
<defs>
<linearGradient id="paint0_linear_154_2554" x1="18.1914" y1="21.0407" x2="125.588" y2="21.0407" gradientUnits="userSpaceOnUse">
<stop stop-color="#B88E5E"/>
<stop offset="1" stop-color="#126C64"/>
</linearGradient>
<linearGradient id="paint1_linear_154_2554" x1="4.1733" y1="25.012" x2="109.961" y2="25.012" gradientUnits="userSpaceOnUse">
<stop stop-color="#CB925D"/>
<stop offset="1" stop-color="#126C64"/>
</linearGradient>
</defs>
</svg>
